<svg width="88" height="24" viewBox="0 0 88 24" fill="none" xmlns="http://www.w3.org/2000/svg">
<g id="logo_white">
<path id="Vector" d="M13.0421 19.0433C11.4563 17.5366 10.583 15.4438 10.583 13.1499C10.583 12.199 10.7353 11.2841 11.024 10.4309C11.024 10.4237 11.024 10.4151 11.024 10.4079H11.0326C11.3544 9.46563 11.8427 8.59807 12.4876 7.84398L11.1274 6.94625C12.0883 6.24818 12.716 5.11632 12.716 3.83652C12.716 2.22492 11.7249 0.846015 10.3202 0.275778C9.87633 0.096233 6.74219 10.4065 6.74219 10.4065C6.7307 10.6435 6.72926 10.9523 6.72926 11.3243C6.72926 12.3484 9.2429 12.1933 9.10788 13.0982C8.90679 14.4513 8.86513 15.4783 7.70311 18.7287C6.91886 20.9221 1.68331 18.7287 1.30986 19.806C1.04988 20.5558 0.911987 21.3946 0.911987 22.2995C0.911987 22.3958 1.1217 23.8479 8.88381 23.8479C16.6459 23.8479 16.8556 22.3972 16.8556 22.2995C16.8556 21.8686 16.8226 21.4521 16.7623 21.0528C15.346 20.6966 14.0676 20.0143 13.045 19.0419L13.0421 19.0433Z" fill="#5D9948"/>
<path id="Vector_2" d="M8.74012 18.5808C9.17247 16.6144 9.55454 14.5173 9.78723 13.2619C10.0774 11.6949 7.70307 11.4148 6.72778 11.2711C6.68325 12.6098 6.3098 14.7816 3.13112 17.2091C2.27361 17.8641 1.63443 18.7991 1.26672 19.931C2.12423 20.3504 3.27045 20.6003 5.03574 20.6003C6.16903 20.6003 8.26612 20.7368 8.73869 18.5808H8.74012Z" fill="#81B64C"/>
<path id="Vector_3" d="M10.4077 10.4093C10.7826 9.43116 10.7338 8.77474 10.7338 8.77474L9.16669 6.94913C10.8329 6.23669 11.8355 4.898 11.8355 3.33811C11.8355 2.09278 11.2437 0.98678 10.3258 0.285834C9.87913 0.103416 9.39077 0.00143433 8.87942 0.00143433C6.76222 0.00143433 5.0472 1.72076 5.0472 3.84083C5.0472 5.12063 5.67346 6.25249 6.63582 6.95056L3.86938 8.77618C3.86938 9.38951 4.01446 9.88074 4.30029 10.4108H10.4077V10.4093Z" fill="#81B64C"/>
<path id="Vector_4" d="M6.62439 3.57368C5.65628 3.45877 6.58992 0.45964 8.66115 0.781385C10.8717 1.12468 7.64277 3.69433 6.62439 3.57368Z" fill="#B2E068"/>
<path id="Vector_5" d="M33.4786 13.9399V19.3823C33.4786 19.5748 33.322 19.7313 33.1296 19.7313H30.8989C30.7064 19.7313 30.5499 19.5748 30.5499 19.3823V14.3924C30.5499 12.7563 30.0845 12.0051 28.9454 12.0051C27.5953 12.0051 26.9374 12.8698 26.9374 14.7313V19.3837C26.9374 19.5762 26.7808 19.7328 26.5884 19.7328H24.3577C24.1652 19.7328 24.0087 19.5762 24.0087 19.3837V6.69346C24.0087 6.50099 24.1652 6.34442 24.3577 6.34442H26.5884C26.7808 6.34442 26.9374 6.50099 26.9374 6.69346V10.4567C27.6987 9.71557 28.4111 9.46564 29.7067 9.46564C32.0911 9.46564 33.48 10.8575 33.48 13.9399H33.4786Z" fill="white"/>
<path id="Vector_6" d="M39.7067 9.46564C36.6285 9.46564 34.7325 11.6475 34.7325 14.6739C34.7325 17.3082 36.2608 19.8821 39.9006 19.8821C41.4619 19.8821 43.0003 19.6552 43.977 19.1151C44.1264 19.0333 44.1881 18.8508 44.1163 18.6957L43.4111 17.1732C43.3321 17.0037 43.1281 16.9419 42.9629 17.0281C41.9531 17.5567 41.3671 17.663 40.0615 17.663C38.7558 17.663 37.6814 16.557 37.6096 15.5012H44.2355C44.3792 15.5012 44.4998 15.3906 44.5127 15.247C44.53 15.0603 44.5472 14.8649 44.5472 14.7112C44.5472 11.4579 42.6699 9.46564 39.7038 9.46564H39.7067ZM37.5737 13.7905C37.6584 12.4964 38.4341 11.6848 39.7253 11.6848C41.0166 11.6848 41.7161 12.5208 41.8167 13.7905H37.5722H37.5737Z" fill="white"/>
<path id="Vector_7" d="M54.9536 18.6957L55.6589 17.1732C55.7379 17.0037 55.9433 16.939 56.107 17.0281C56.9961 17.5121 57.9484 17.663 59.0559 17.663C60.4075 17.663 60.9145 17.3053 60.9145 16.7423C60.9145 15.0876 54.8129 16.7796 54.8129 12.7377C54.8129 10.8201 56.5394 9.46564 59.4868 9.46564C60.7494 9.46564 62.0406 9.75722 63.0016 10.2298C63.1567 10.3059 63.2199 10.4955 63.1466 10.6535L62.4414 12.1603C62.3653 12.324 62.1699 12.3901 62.0076 12.3111C61.1099 11.8658 60.3156 11.6863 59.4854 11.6863C58.1711 11.6863 57.608 12.0999 57.608 12.6256C57.608 14.355 63.7097 12.6817 63.7097 16.6676C63.7097 18.5478 61.9645 19.8821 58.941 19.8821C57.3796 19.8821 56.0654 19.6552 55.0901 19.1151C54.9407 19.0333 54.8789 18.8508 54.9508 18.6957H54.9536Z" fill="white"/>
<path id="Vector_8" d="M63.8477 19.085C63.8477 18.6225 64.2053 18.2993 64.6319 18.2993C65.0585 18.2993 65.3932 18.6225 65.3932 19.085C65.3932 19.5475 65.047 19.8821 64.6319 19.8821C64.2168 19.8821 63.8477 19.5475 63.8477 19.085Z" fill="white"/>
<path id="Vector_9" d="M71.2177 16.5282C71.2177 14.5733 72.5779 13.1858 74.4251 13.1858C76.2722 13.1858 77.621 14.5719 77.621 16.5282C77.621 18.4846 76.2736 19.8821 74.4251 19.8821C72.5765 19.8821 71.2177 18.4831 71.2177 16.5282ZM76.4934 16.5282C76.4934 15.1292 75.61 14.2257 74.4251 14.2257C73.2401 14.2257 72.3452 15.1292 72.3452 16.5282C72.3452 17.9273 73.2401 18.8422 74.4251 18.8422C75.61 18.8422 76.4934 17.9258 76.4934 16.5282Z" fill="white"/>
<path id="Vector_10" d="M87.0909 16.0327V19.5705C87.0909 19.7012 86.9846 19.8075 86.8553 19.8075H86.1414C86.0107 19.8075 85.9059 19.7012 85.9059 19.5705V16.1677C85.9059 14.8807 85.5382 14.2487 84.4882 14.2487C83.5028 14.2487 83.3506 15.0043 83.3506 16.4277V19.5705C83.3506 19.7012 83.2443 19.8075 83.115 19.8075H82.4011C82.2704 19.8075 82.1656 19.7012 82.1656 19.5705V16.1677C82.1656 14.8807 81.8525 14.2487 80.8125 14.2487C79.8444 14.2487 79.6103 15.0043 79.6103 16.4277V19.5705C79.6103 19.7012 79.504 19.8075 79.3747 19.8075H78.6609C78.5301 19.8075 78.4253 19.7012 78.4253 19.5705V13.4831C78.4253 13.3524 78.5316 13.2461 78.6609 13.2461H79.3259C79.4566 13.2461 79.5615 13.3524 79.5615 13.4831V13.8279C79.6505 13.6885 80.0067 13.1844 80.9964 13.1844C81.8812 13.1844 82.4256 13.4946 82.8378 14.1309C82.8378 14.1309 83.2544 13.1844 84.6878 13.1844C86.2822 13.1844 87.0938 14.1008 87.0938 16.0313L87.0909 16.0327Z" fill="white"/>
<path id="Vector_11" d="M68.9194 18.8422C67.631 18.8422 66.8439 17.9517 66.8439 16.5282C66.8439 15.1048 67.631 14.2257 68.9194 14.2257C69.5011 14.2257 70.034 14.4211 70.4391 14.8362C70.5353 14.9353 70.7034 14.8621 70.7034 14.7242V13.7977C70.7034 13.7015 70.6488 13.6139 70.564 13.5679C70.0972 13.3151 69.5414 13.1858 68.9323 13.1858C66.9128 13.1858 65.6431 14.5719 65.6431 16.5282C65.6431 18.4846 66.9128 19.8821 68.9323 19.8821C69.5428 19.8821 70.0987 19.7486 70.5655 19.4929C70.6502 19.4469 70.7034 19.3607 70.7034 19.2645V18.3438C70.7034 18.2059 70.5353 18.1327 70.4391 18.2318C70.034 18.6469 69.5011 18.8422 68.9194 18.8422Z" fill="white"/>
<path id="Vector_12" d="M48.3062 12.6084C48.3062 12.0669 48.8851 11.6417 50.2367 11.6417C51.0899 11.6417 51.9086 11.827 52.8308 12.2852C52.9974 12.3671 53.1985 12.2981 53.2761 12.1301L54.0014 10.5803C54.0775 10.4179 54.0129 10.224 53.852 10.145C52.8638 9.65954 51.5352 9.35934 50.2367 9.35934C47.2045 9.35934 45.4292 10.7512 45.4292 12.7247C45.4292 16.883 51.7047 15.1421 51.7047 16.8442C51.7047 17.4245 51.1833 17.7922 49.7929 17.7922C48.6524 17.7922 47.6728 17.6371 46.7593 17.1387C46.5898 17.0468 46.3801 17.1128 46.2982 17.2866L45.5714 18.8523C45.4981 19.0117 45.5613 19.1984 45.715 19.2832C46.7191 19.8391 48.0707 20.0732 49.6765 20.0732C52.7848 20.0732 54.5803 18.7 54.5803 16.7667C54.5803 12.6673 48.3048 14.3881 48.3048 12.6084H48.3062Z" fill="white"/>
<path id="Vector_13" d="M19.2442 17.3628C16.7851 17.3628 15.0385 15.6334 15.0385 13.1513C15.0385 10.6693 16.7837 8.93993 19.2442 8.93993C20.2669 8.93993 21.1632 9.2588 21.9273 9.87788C22.1772 10.0804 22.5493 9.91235 22.5493 9.58917V7.39584C22.5493 7.22204 22.4458 7.06404 22.2878 6.99222C21.3513 6.56849 20.2741 6.34442 19.0962 6.34442C15.004 6.34442 11.9633 9.18411 11.9633 13.1513C11.9633 17.1186 15.004 19.9583 19.0776 19.9583C20.2669 19.9583 21.3499 19.7342 22.2893 19.3062C22.4473 19.2343 22.5507 19.0778 22.5507 18.9025V16.7006C22.5507 16.3789 22.1772 16.2108 21.9287 16.4148C21.166 17.0425 20.2683 17.3613 19.2456 17.3613L19.2442 17.3628Z" fill="white"/>
</g>
</svg>
